<svg width="914" height="400" fill="none" xmlns="http://www.w3.org/2000/svg">
  <path fill="#fff" d="M0 0h914v400H0z"/>
  <path d="M380.878 209h-12.564v-1.791l7.027-9.023h-6.33V195h11.813v2.133l-6.659 8.681h6.713V209zm13.427 0h-4.088v-2.01h-.055c-.939 1.568-2.329 2.352-4.17 2.352-1.358 0-2.429-.383-3.213-1.149-.775-.774-1.162-1.804-1.162-3.089 0-2.717 1.609-4.284 4.826-4.704l3.801-.505c0-1.532-.829-2.297-2.488-2.297-1.668 0-3.254.496-4.758 1.49v-3.254c.602-.31 1.422-.583 2.461-.82 1.048-.237 2.001-.356 2.857-.356 3.993 0 5.989 1.992 5.989 5.975V209zm-4.061-5.688v-.943l-2.543.328c-1.404.183-2.105.816-2.105 1.901 0 .492.168.897.506 1.216.346.31.811.465 1.394.465.811 0 1.472-.278 1.982-.834.511-.565.766-1.276.766-2.133zm11.294 4.061h-.055V209h-4.32v-20.727h4.32v8.832h.055c1.066-1.631 2.584-2.447 4.552-2.447 1.805 0 3.195.62 4.17 1.86.976 1.239 1.463 2.934 1.463 5.086 0 2.333-.57 4.206-1.709 5.619-1.139 1.412-2.661 2.119-4.566 2.119-1.723 0-3.026-.656-3.91-1.969zm-.123-5.906v1.435c0 .903.259 1.65.779 2.243.519.592 1.185.888 1.996.888.984 0 1.745-.378 2.283-1.135.547-.765.82-1.845.82-3.24 0-1.157-.25-2.06-.751-2.707-.493-.656-1.199-.984-2.12-.984-.866 0-1.586.323-2.16.971-.565.647-.847 1.49-.847 2.529zm16.926 5.906h-.055V209h-4.32v-20.727h4.32v8.832h.055c1.066-1.631 2.584-2.447 4.553-2.447 1.804 0 3.194.62 4.17 1.86.975 1.239 1.462 2.934 1.462 5.086 0 2.333-.569 4.206-1.709 5.619-1.139 1.412-2.661 2.119-4.566 2.119-1.723 0-3.026-.656-3.91-1.969zm-.123-5.906v1.435c0 .903.26 1.65.779 2.243.52.592 1.185.888 1.996.888.985 0 1.746-.378 2.283-1.135.547-.765.821-1.845.821-3.24 0-1.157-.251-2.06-.752-2.707-.492-.656-1.199-.984-2.119-.984-.866 0-1.586.323-2.161.971-.565.647-.847 1.49-.847 2.529zm14.739-8.682c-.73 0-1.327-.214-1.791-.642a2.115 2.115 0 01-.698-1.6c0-.647.233-1.176.698-1.586.464-.41 1.061-.615 1.791-.615.738 0 1.335.205 1.791.615.465.41.697.939.697 1.586 0 .656-.232 1.194-.697 1.613-.456.42-1.053.629-1.791.629zM435.089 209h-4.32v-14h4.32v14zm16.599-14l-4.621 6.781L451.66 209h-4.976l-2.024-3.773c-.164-.301-.36-.725-.588-1.272h-.054a8.936 8.936 0 01-.561 1.231L441.42 209h-4.963l4.731-6.973-4.444-7.027h5.004l1.996 3.924c.265.519.451.957.561 1.312h.055c.145-.428.341-.875.587-1.34l2.038-3.896h4.703zm9.01 8.039h-7.479v-3.021h7.479v3.021zm5.333-10.254c-.73 0-1.327-.214-1.791-.642a2.115 2.115 0 01-.698-1.6c0-.647.233-1.176.698-1.586.464-.41 1.061-.615 1.791-.615.738 0 1.335.205 1.791.615.464.41.697.939.697 1.586 0 .656-.233 1.194-.697 1.613-.456.42-1.053.629-1.791.629zm2.132 15.969c0 2.069-.505 3.723-1.517 4.963-1.012 1.239-2.47 1.859-4.375 1.859-.629 0-1.317-.137-2.065-.41v-3.391c.602.338 1.135.506 1.6.506 1.358 0 2.037-1.066 2.037-3.199V195h4.32v13.754zm25.308.246h-4.307v-7.984c0-2.033-.747-3.049-2.242-3.049-.711 0-1.29.305-1.737.916-.446.61-.67 1.372-.67 2.283V209h-4.32v-8.066c0-1.978-.734-2.967-2.201-2.967-.738 0-1.331.291-1.777.875-.438.583-.657 1.376-.657 2.379V209h-4.32v-14h4.32v2.188h.055c.447-.748 1.071-1.354 1.873-1.819a5.163 5.163 0 012.652-.711c1.978 0 3.332.871 4.061 2.612 1.066-1.741 2.634-2.612 4.703-2.612 3.044 0 4.567 1.878 4.567 5.633V209zm16.379-14l-4.621 6.781 4.594 7.219h-4.977l-2.023-3.773c-.164-.301-.36-.725-.588-1.272h-.055a8.923 8.923 0 01-.56 1.231L499.582 209h-4.962l4.73-6.973-4.443-7.027h5.004l1.996 3.924c.264.519.451.957.56 1.312h.055c.146-.428.342-.875.588-1.34l2.037-3.896h4.703z" fill="#333"/>
  <path d="M512.489 209.273c-.364 0-.674-.127-.929-.382a1.264 1.264 0 01-.383-.93c0-.374.123-.688.369-.943.255-.256.57-.383.943-.383.183 0 .351.036.506.109.164.064.305.155.424.274a1.297 1.297 0 01.396.943c0 .182-.036.355-.109.519a1.467 1.467 0 01-.287.411c-.119.118-.26.209-.424.273a1.17 1.17 0 01-.506.109zm16.352-1.353c0 2.598-.592 4.521-1.777 5.769-1.176 1.258-2.994 1.887-5.455 1.887a9.602 9.602 0 01-4.348-1.025v-1.778c1.522.848 2.972 1.272 4.348 1.272 3.655 0 5.482-1.932 5.482-5.797v-1.682h-.054c-1.076 1.842-2.717 2.762-4.922 2.762-.866 0-1.659-.159-2.379-.478a5.133 5.133 0 01-1.832-1.381c-.511-.602-.907-1.331-1.19-2.188-.282-.866-.423-1.841-.423-2.926 0-1.148.15-2.192.451-3.13.3-.948.729-1.76 1.285-2.434a5.69 5.69 0 012.01-1.559c.793-.373 1.681-.56 2.666-.56 1.978 0 3.422.802 4.334 2.406h.054V195h1.75v12.92zm-1.75-7.424c0-.583-.105-1.135-.314-1.654a4.278 4.278 0 00-.875-1.367 4.109 4.109 0 00-1.34-.93 3.977 3.977 0 00-1.695-.356c-.729 0-1.39.142-1.983.424a4.375 4.375 0 00-1.504 1.203c-.41.52-.729 1.153-.957 1.901-.218.738-.328 1.572-.328 2.502 0 .857.105 1.631.315 2.324.209.693.506 1.281.888 1.764a4 4 0 001.381 1.121 4.129 4.129 0 001.819.396c.692 0 1.321-.123 1.886-.369a4.383 4.383 0 001.449-1.039c.402-.447.711-.966.93-1.559a5.626 5.626 0 00.328-1.941v-2.42zm11.431 8.832c-1.039 0-1.974-.173-2.803-.519a6.053 6.053 0 01-2.106-1.463 6.532 6.532 0 01-1.339-2.284c-.31-.884-.465-1.863-.465-2.939 0-1.167.164-2.21.492-3.131.328-.92.793-1.7 1.394-2.338a6.012 6.012 0 012.202-1.476c.856-.338 1.813-.506 2.871-.506 1.011 0 1.923.168 2.734.506a5.519 5.519 0 012.065 1.435c.565.629.998 1.395 1.298 2.297.301.902.452 1.928.452 3.076 0 1.094-.16 2.092-.479 2.994a6.655 6.655 0 01-1.34 2.311 5.964 5.964 0 01-2.133 1.504c-.838.355-1.786.533-2.843.533zm.136-13.139c-.765 0-1.458.133-2.078.397a4.379 4.379 0 00-1.599 1.162c-.438.501-.775 1.121-1.012 1.859-.237.73-.356 1.559-.356 2.489 0 .875.119 1.663.356 2.365.237.702.57 1.303.998 1.805.437.501.966.888 1.586 1.162.62.264 1.312.396 2.078.396.784 0 1.477-.127 2.078-.383a4.196 4.196 0 001.531-1.134c.42-.502.734-1.112.944-1.832.218-.72.328-1.541.328-2.461 0-1.887-.419-3.327-1.258-4.321-.839-1.002-2.037-1.504-3.596-1.504z" fill="#555"/>
</svg>
