<svg width="914" height="400" fill="none" xmlns="http://www.w3.org/2000/svg"><style>#CL0 {fill: #00ACD7;}#CL1 {fill: #333;}@media (prefers-color-scheme: dark) {#CL0 {fill: #00ACD7;}#CL1 {fill: #EEE;}}</style><path d="M356.551 208v-3.64l7.616-8.12h-7.336v-3.64h12.292v3.64l-7.616 8.12h7.924V208h-12.88Zm20.121.28c-1.531 0-2.744-.439-3.64-1.316-.896-.896-1.344-2.063-1.344-3.5 0-1.045.243-1.941.728-2.688.504-.747 1.223-1.316 2.156-1.708.952-.411 2.091-.616 3.416-.616h3.024v-.98c0-.579-.205-1.027-.616-1.344-.392-.336-.961-.504-1.708-.504-.709 0-1.279.14-1.708.42-.411.28-.635.691-.672 1.232h-3.976c.056-1.512.653-2.716 1.792-3.612 1.139-.896 2.679-1.344 4.62-1.344 2.035 0 3.621.467 4.76 1.4 1.139.933 1.708 2.24 1.708 3.92V208h-4.06v-3.052h-.672l.756-.448c0 .765-.187 1.437-.56 2.016-.373.56-.905.999-1.596 1.316-.672.299-1.475.448-2.408.448Zm1.484-3.36c.877 0 1.568-.215 2.072-.644.523-.448.784-1.027.784-1.736v-1.568h-2.94c-.747 0-1.325.187-1.736.56-.392.355-.588.821-.588 1.4s.205 1.055.616 1.428c.429.373 1.027.56 1.792.56Zm17.909 3.36c-1.418 0-2.548-.495-3.388-1.484-.821-1.008-1.232-2.38-1.232-4.116l1.372 2.1h-.98V208h-4.06v-20.44h4.2v4.2l-.14 4.06h.98l-1.372 2.1c0-1.755.411-3.127 1.232-4.116.84-.989 1.97-1.484 3.388-1.484 1.494 0 2.698.551 3.612 1.652.915 1.083 1.372 2.539 1.372 4.368v3.92c0 1.829-.457 3.295-1.372 4.396-.914 1.083-2.118 1.624-3.612 1.624Zm-1.624-3.64c.766 0 1.354-.215 1.764-.644.43-.448.644-1.073.644-1.876v-3.64c0-.821-.214-1.447-.644-1.876-.41-.429-.998-.644-1.764-.644-.802 0-1.418.233-1.848.7-.41.448-.616 1.101-.616 1.96v3.36c0 .859.206 1.521.616 1.988.43.448 1.046.672 1.848.672Zm17.293 3.64c-1.418 0-2.548-.495-3.388-1.484-.821-1.008-1.232-2.38-1.232-4.116l1.372 2.1h-.98V208h-4.06v-20.44h4.2v4.2l-.14 4.06h.98l-1.372 2.1c0-1.755.411-3.127 1.232-4.116.84-.989 1.97-1.484 3.388-1.484 1.494 0 2.698.551 3.612 1.652.915 1.083 1.372 2.539 1.372 4.368v3.92c0 1.829-.457 3.295-1.372 4.396-.914 1.083-2.118 1.624-3.612 1.624Zm-1.624-3.64c.766 0 1.354-.215 1.764-.644.43-.448.644-1.073.644-1.876v-3.64c0-.821-.214-1.447-.644-1.876-.41-.429-.998-.644-1.764-.644-.802 0-1.418.233-1.848.7-.41.448-.616 1.101-.616 1.96v3.36c0 .859.206 1.521.616 1.988.43.448 1.046.672 1.848.672Zm9.117 3.36v-3.78h5.096v-7.84h-4.536v-3.78h8.736v11.62h4.424V208h-13.72Zm7-17.836c-.765 0-1.381-.196-1.848-.588-.448-.392-.672-.924-.672-1.596s.224-1.204.672-1.596c.467-.392 1.083-.588 1.848-.588.766 0 1.372.196 1.82.588.467.392.7.924.7 1.596s-.233 1.204-.7 1.596c-.448.392-1.054.588-1.82.588ZM433.664 208l5.32-7.98-4.956-7.42h4.676l1.904 3.08c.15.243.29.513.42.812.131.299.234.541.308.728.075-.187.178-.429.308-.728.131-.299.271-.569.42-.812l1.904-3.08h4.676l-4.928 7.42 5.292 7.98h-4.676l-2.24-3.64a34.523 34.523 0 0 1-.448-.812c-.13-.299-.233-.541-.308-.728a23.19 23.19 0 0 1-.308.728c-.13.28-.27.551-.42.812L438.34 208h-4.676Zm18.861-7.28v-3.92h8.96v3.92h-8.96Zm13.85 12.32v-3.78h4.48c.709 0 1.278-.233 1.708-.7.448-.467.672-1.073.672-1.82v-10.36h-7v-3.78h11.2v14.28c0 1.904-.56 3.407-1.68 4.508-1.12 1.101-2.651 1.652-4.592 1.652h-4.788Zm8.82-22.876c-.766 0-1.382-.196-1.848-.588-.448-.392-.672-.924-.672-1.596s.224-1.204.672-1.596c.466-.392 1.082-.588 1.848-.588.765 0 1.372.196 1.82.588.466.392.7.924.7 1.596s-.234 1.204-.7 1.596c-.448.392-1.055.588-1.82.588ZM481.008 208v-15.4h3.444v2.38h.588l-.532.308c0-.877.233-1.587.7-2.128.466-.56 1.092-.84 1.876-.84.784 0 1.437.317 1.96.952.541.616.812 1.419.812 2.408l-.588-.7h.784l-.28.308c0-.896.242-1.615.728-2.156.504-.541 1.148-.812 1.932-.812.914 0 1.68.364 2.296 1.092.634.728.952 1.671.952 2.828V208h-3.612v-11.284c0-.429-.094-.756-.28-.98-.168-.243-.43-.364-.784-.364-.355 0-.616.121-.784.364-.15.224-.224.551-.224.98V208h-3.304v-11.284c0-.429-.084-.756-.252-.98-.15-.243-.402-.364-.756-.364-.355 0-.626.121-.812.364-.168.224-.252.551-.252.98V208h-3.612Zm15.333 0 5.32-7.98-4.956-7.42h4.676l1.904 3.08c.149.243.289.513.42.812.13.299.233.541.308.728.074-.187.177-.429.308-.728.13-.299.27-.569.42-.812l1.904-3.08h4.676l-4.928 7.42 5.292 7.98h-4.676l-2.24-3.64c-.15-.261-.299-.532-.448-.812a23.19 23.19 0 0 1-.308-.728c-.075.187-.178.429-.308.728-.131.28-.271.551-.42.812l-2.268 3.64h-4.676Z" id="CL1"/><path d="M519.682 208.28c-.784 0-1.419-.233-1.904-.7-.467-.485-.7-1.111-.7-1.876 0-.765.233-1.391.7-1.876.485-.485 1.12-.728 1.904-.728.784 0 1.409.243 1.876.728.485.485.728 1.111.728 1.876 0 .765-.243 1.391-.728 1.876-.467.467-1.092.7-1.876.7Zm11.525 4.76v-2.912h4.34c.821 0 1.456-.224 1.904-.672.448-.429.672-1.017.672-1.764v-.924l.056-2.408c-.318.859-.831 1.531-1.54 2.016-.691.467-1.54.7-2.548.7-1.568 0-2.819-.523-3.752-1.568-.915-1.064-1.372-2.501-1.372-4.312V198.2c0-1.792.457-3.22 1.372-4.284.933-1.064 2.184-1.596 3.752-1.596 1.008 0 1.857.243 2.548.728.709.467 1.222 1.139 1.54 2.016V192.6h3.416v15.176c0 1.624-.542 2.903-1.624 3.836-1.064.952-2.52 1.428-4.368 1.428h-4.396Zm4.06-8.96c.896 0 1.586-.261 2.072-.784.504-.541.756-1.288.756-2.24v-2.688c0-.952-.252-1.689-.756-2.212-.486-.541-1.176-.812-2.072-.812-.896 0-1.587.261-2.072.784-.486.504-.728 1.213-.728 2.128v2.912c0 .915.242 1.633.728 2.156.485.504 1.176.756 2.072.756Zm15.753 4.172c-1.979 0-3.547-.551-4.704-1.652-1.157-1.12-1.736-2.623-1.736-4.508v-3.584c0-1.904.579-3.407 1.736-4.508s2.725-1.652 4.704-1.652c1.979 0 3.547.551 4.704 1.652 1.157 1.101 1.736 2.604 1.736 4.508v3.584c0 1.885-.579 3.388-1.736 4.508-1.157 1.101-2.725 1.652-4.704 1.652Zm0-3.052c.933 0 1.652-.252 2.156-.756.523-.523.784-1.269.784-2.24v-3.808c0-.971-.261-1.708-.784-2.212-.504-.523-1.223-.784-2.156-.784s-1.661.261-2.184.784c-.504.504-.756 1.241-.756 2.212v3.808c0 .971.252 1.717.756 2.24.523.504 1.251.756 2.184.756Z" id="CL0"/></svg>